# xmcd CD database file
#
# Track frame offsets:
#	150
#	22755
#	32705
#	64307
#	76237
#	90867
#	101497
#	119252
#
# Disc length: 1877 seconds
#
# Revision: 0
# Processed by: cddbd v1.4PL0 Copyright (c) Steve Scherf et al.
# Submitted via: CDex 1.50beta9
#
DISCID=51075308
DTITLE=Various Artist - Tunes For The Mid-Winter Blues
DYEAR=2002
DGENRE=Blues
TTITLE0=B.B. King/The Thrill Is Gone
TTITLE1=Bo Diddley/Hey Bo Diddley
TTITLE2=Cannonball Adderly/Cannon Blues
TTITLE3=Savoy Brown/Cold Hearted Woman
TTITLE4=Ray Charles/Blues Is My Middle Name
TTITLE5=Clarence Frogman Henry/Ain't Got No Home
TTITLE6=John Mayall/Mama Talk To Your Daughter
TTITLE7=Roy Milton/Roy's Grove
EXTD=YEAR: 2002
EXTT0=
EXTT1=
EXTT2=
EXTT3=
EXTT4=
EXTT5=
EXTT6=
EXTT7=
PLAYORDER=
